<svg xmlns="http://www.w3.org/2000/svg" viewBox="0 0 1700 1700"><g id="Ebene_6" data-name="Ebene 6"><g id="Bildmarke"><path d="M1240.38,350.77V503.85c71.8,19.9,124.73,85.67,124.73,163.72s-52.93,143.81-124.73,163.72V984.37c155.1-22.08,274.76-155.7,274.76-316.8S1395.48,372.85,1240.38,350.77Z"/><path d="M1150.36,503.8V350.57C1013.68,369.66,920,475.46,813.05,596.18l-17.71,20c-17.54,17.6-35.23,36.32-52.36,54.43-63.2,66.86-128.16,135.55-193.37,158.78V983.9c121.69-20.07,216.1-119,300.39-208.14,84.28,89.15,178.68,188.06,300.36,208.14V829.34c-65.2-23.24-130.15-91.92-193.34-158.76-1.58-1.68-3.22-3.38-4.81-5.07C1030.62,578.06,1087.54,521.81,1150.36,503.8Z"/><path d="M504.93,347.5c-176.49,0-320.07,143.59-320.07,320.07,0,161.08,119.65,294.7,274.73,316.8V831.28c-71.79-19.91-124.7-85.67-124.7-163.71,0-93.76,76.28-170,170-170,64.36,0,117.48,36.94,183.56,104.25l9.21-9.73c17.12-18.11,34.81-36.82,52.36-54.43l17.7-20q11.64-13.14,23.09-26C707.65,407.83,621.9,347.5,504.93,347.5Z"/></g><g id="Wortmarke"><path d="M333.62,1168.79a62.73,62.73,0,0,0-18.55,2.71,49.19,49.19,0,0,0-15.48,7.73,36.06,36.06,0,0,0-10.44,12.43,37,37,0,0,0-3.78,17.1v92.9q0,20.89,13.86,30.43t34.75,9.54a110.48,110.48,0,0,0,34-5,77.64,77.64,0,0,0,27.91-15.84l19.45,32.76q-18.36,16.2-38,22a154.08,154.08,0,0,1-43.39,5.76,130.06,130.06,0,0,1-36.91-5,85.57,85.57,0,0,1-29.53-15,70.45,70.45,0,0,1-19.62-24.85q-7.21-14.93-7.2-34.74v-92.9q0-18.72,7.39-33.48a75,75,0,0,1,20-25,89.09,89.09,0,0,1,29.53-15.67,117.63,117.63,0,0,1,36-5.4,153.23,153.23,0,0,1,26.11,2,79.74,79.74,0,0,1,20.52,6.3,86.38,86.38,0,0,1,17.28,10.8,203.19,203.19,0,0,1,16.74,15.12l-24.47,30.25a116.08,116.08,0,0,0-24.67-17.83Q352,1168.79,333.62,1168.79Z"/><path d="M518.7,1197.6q37.08,0,57.25,17.28t20.17,49v50.77a61.74,61.74,0,0,1-6.3,28.27,62.52,62.52,0,0,1-16.93,20.88,76.57,76.57,0,0,1-24.66,13,97.74,97.74,0,0,1-29.89,4.5,104.59,104.59,0,0,1-30.43-4.32,75.73,75.73,0,0,1-25-12.79,61.48,61.48,0,0,1-17.11-20.88q-6.3-12.42-6.3-28.63v-50.77q0-15.84,5.77-28.08a57.48,57.48,0,0,1,16.38-20.71,76,76,0,0,1,25.21-13A107.55,107.55,0,0,1,518.7,1197.6Zm32.77,66.25q0-13-9.9-19.8a39.29,39.29,0,0,0-22.87-6.85,50.9,50.9,0,0,0-13,1.62,34.16,34.16,0,0,0-11,5,26.09,26.09,0,0,0-7.75,8.46,22.8,22.8,0,0,0-2.88,11.52v50.77q0,13.7,10.27,20.35t23.94,6.66q13.32,0,23.23-6.66t9.9-20.35Z"/><path d="M726.1,1197.6q32,0,46.08,16.92t14.05,49v114.14H741.58V1271.32q0-14.7-6.84-24.42t-21.6-9.7a37.37,37.37,0,0,0-14.23,2.88,42.33,42.33,0,0,0-12.42,7.72,38.53,38.53,0,0,0-8.64,11.14,29,29,0,0,0-3.25,13.47v105.22H630V1201.2h38.54L674.6,1227a85.13,85.13,0,0,1,22.15-21.63Q708.81,1197.6,726.1,1197.6Z"/><path d="M801,1172.39v-39.6H991.12v40H918v204.87H873.37V1172.76Z"/><path d="M1079.69,1341.63a73.48,73.48,0,0,0,14.22-1.45,97.11,97.11,0,0,0,14.41-4,77.55,77.55,0,0,0,13.15-6.13,61,61,0,0,0,10.44-7.56l19.44,31.69q-16.21,15.12-34.57,21.07a129.18,129.18,0,0,1-40,5.94,126.28,126.28,0,0,1-33-4.14,76.33,76.33,0,0,1-26.64-12.79,59.07,59.07,0,0,1-17.65-21.78q-6.3-13.14-6.3-30.79v-48.25q0-16.2,6.13-28.45a60,60,0,0,1,16.56-20.52,73.47,73.47,0,0,1,24.84-12.6,106.08,106.08,0,0,1,30.61-4.32,87.24,87.24,0,0,1,28.09,4.5,74,74,0,0,1,23.4,12.78,60.46,60.46,0,0,1,16,20.35,59.74,59.74,0,0,1,5.95,26.82v29.89l-106.95,15.48v4.32a22.26,22.26,0,0,0,3.78,12.79,32.93,32.93,0,0,0,9.73,9.35,47.28,47.28,0,0,0,13.5,5.77A58.07,58.07,0,0,0,1079.69,1341.63Zm-9.36-105.14a40.83,40.83,0,0,0-12.25,1.8,33.26,33.26,0,0,0-10.25,5.21,25.81,25.81,0,0,0-7.2,8.47,23.9,23.9,0,0,0-2.71,11.52v14.41l60.86-8.65v-9.72q0-13-7.74-18T1070.33,1236.49Z"/><path d="M1264.92,1271.41q23.88,5.77,38,17.29t14.11,32.76q0,15.86-5.59,27a48.39,48.39,0,0,1-15.48,18.18,67.45,67.45,0,0,1-23.23,10.27,121.69,121.69,0,0,1-28.81,3.23,93.34,93.34,0,0,1-38.88-8.28,98.35,98.35,0,0,1-32-23l22.68-30.6a91,91,0,0,0,10.44,8.82,96,96,0,0,0,13.15,8.09,98.78,98.78,0,0,0,14,5.95,42.36,42.36,0,0,0,13.5,2.34q5.4,0,10.26-.36a26.87,26.87,0,0,0,8.64-2,13.28,13.28,0,0,0,5.95-4.86,15.45,15.45,0,0,0,2.15-8.65q0-6.82-4.32-10.44a30.69,30.69,0,0,0-10.62-5.57,102.48,102.48,0,0,0-13.86-3.25q-7.56-1.26-14-2.7a131.6,131.6,0,0,1-21.42-7,57.25,57.25,0,0,1-16.2-10.26,39,39,0,0,1-10.08-14.95q-3.43-8.82-3.43-21.06,0-14.4,5.36-24.67a47.06,47.06,0,0,1,14.82-16.92,64.73,64.73,0,0,1,22.19-9.73,116.24,116.24,0,0,1,27.13-3,80.4,80.4,0,0,1,34,7.74,110.15,110.15,0,0,1,29.7,20l-22,29.88q-7.92-8.28-20.88-13.86t-24.49-5.58q-10.08,0-15.66,3.42t-5.58,12.78a10.75,10.75,0,0,0,4.16,9,28.22,28.22,0,0,0,10.3,4.86,124.82,124.82,0,0,0,13.2,2.7Q1259.14,1270,1264.92,1271.41Z"/><path d="M1420,1342.35a73.57,73.57,0,0,0,10.8-1.08,118.69,118.69,0,0,0,13.32-2.88l15.85-4,9.36,31.33c-2.16,1-5.47,2.28-9.9,4s-9.25,3.3-14.41,4.87-10.2,2.88-15.12,4a58.13,58.13,0,0,1-12.06,1.62q-24.85,0-39.07-10.08t-14.22-34.93V1231.8H1332.1v-30.6h32.77v-51.86h44.28v51.86H1452v30.6h-42.86v97.58a14.87,14.87,0,0,0,2.89,9A9.26,9.26,0,0,0,1420,1342.35Z"/></g></g></svg>